<svg aria-hidden="true" xmlns="http://www.w3.org/2000/svg" xmlns:xlink="http://www.w3.org/1999/xlink"><symbol viewBox="0 0 20 20" id="arrow-down" xmlns="http://www.w3.org/2000/svg">
<path fill-rule="evenodd" clip-rule="evenodd" d="M16.4697 6.8637C16.8212 7.21517 16.8212 7.78502 16.4697 8.13649L10.6364 13.9698C10.4676 14.1386 10.2387 14.2334 10 14.2334C9.76132 14.2334 9.53241 14.1386 9.36362 13.9698L3.53029 8.13649C3.17882 7.78502 3.17882 7.21517 3.53029 6.8637C3.88176 6.51223 4.45161 6.51223 4.80308 6.8637L10 12.0606L15.197 6.8637C15.5484 6.51223 16.1183 6.51223 16.4697 6.8637Z"/>
</symbol><symbol viewBox="0 0 20 14" id="arrow-link" xmlns="http://www.w3.org/2000/svg">
<path fill-rule="evenodd" clip-rule="evenodd" d="M12.4697 0.46967C12.1768 0.762563 12.1768 1.23744 12.4697 1.53033L17.1893 6.25H1C0.585787 6.25 0.25 6.58579 0.25 7C0.25 7.41421 0.585787 7.75 1 7.75H17.1893L12.4697 12.4697C12.1768 12.7626 12.1768 13.2374 12.4697 13.5303C12.7626 13.8232 13.2374 13.8232 13.5303 13.5303L19.5303 7.53033C19.8232 7.23744 19.8232 6.76256 19.5303 6.46967L13.5303 0.46967C13.2374 0.176777 12.7626 0.176777 12.4697 0.46967Z"/>
</symbol><symbol viewBox="0 0 24 24" id="cart" xmlns="http://www.w3.org/2000/svg">
<path fill-rule="evenodd" clip-rule="evenodd" d="M3.14909 3.40828C3.04681 3.40057 2.90689 3.39998 2.65422 3.39998H0.999976C0.502919 3.39998 0.0999756 2.99704 0.0999756 2.49998C0.0999756 2.00292 0.502919 1.59998 0.999976 1.59998H2.65422L2.68065 1.59998H2.68073C2.89705 1.59996 3.10609 1.59994 3.28433 1.61337C3.48114 1.6282 3.70392 1.66265 3.9329 1.76479C4.2586 1.91008 4.53684 2.1441 4.73579 2.4401C4.87565 2.64819 4.94777 2.86177 4.9961 3.05313C5.03988 3.22646 5.07568 3.43244 5.11272 3.64559L5.11725 3.67163L5.36951 5.12211L18.4275 5.50864L18.462 5.50966C18.9747 5.52482 19.4118 5.53775 19.7707 5.57727C20.1483 5.61886 20.5145 5.69626 20.8635 5.88221C21.398 6.16693 21.8299 6.61181 22.0986 7.15444C22.2742 7.50882 22.3407 7.87715 22.3711 8.25576C22.4 8.61566 22.4 9.05303 22.4 9.56587V9.60048V9.63365V9.63376C22.4 10.1157 22.4 10.5282 22.3735 10.8691C22.3454 11.2288 22.2841 11.5787 22.1238 11.9193C21.8773 12.443 21.4796 12.881 20.9821 13.1769C20.6585 13.3692 20.3162 13.464 19.9608 13.5265C19.624 13.5858 19.2135 13.6255 18.7337 13.6719L18.7007 13.6751L9.03931 14.6101L9.00572 14.6133L9.00566 14.6133C8.51391 14.6609 8.09353 14.7016 7.74393 14.7078C7.37536 14.7142 7.01356 14.6854 6.65274 14.5528C6.10602 14.352 5.63245 13.9912 5.29369 13.5174C5.07012 13.2047 4.94625 12.8635 4.85466 12.5065C4.7678 12.1678 4.69544 11.7517 4.61081 11.2649L4.60501 11.2316L3.72198 6.15419L3.34387 3.98004C3.30058 3.73111 3.27602 3.59336 3.2509 3.49391C3.24314 3.46317 3.23714 3.44401 3.23349 3.4334C3.22714 3.42628 3.2198 3.4201 3.21169 3.41506C3.20061 3.41329 3.1807 3.41066 3.14909 3.40828ZM5.68431 6.93221L6.37839 10.9232C6.47043 11.4524 6.53115 11.7977 6.59823 12.0593C6.66256 12.3101 6.71616 12.4121 6.75792 12.4705C6.88642 12.6502 7.06605 12.787 7.27342 12.8632C7.34082 12.888 7.45336 12.9126 7.71227 12.908C7.98222 12.9033 8.33129 12.8702 8.86593 12.8184L18.5273 11.8835C19.0491 11.833 19.3893 11.7994 19.6489 11.7537C19.8975 11.71 20.0013 11.6658 20.0622 11.6297C20.2509 11.5175 20.4017 11.3513 20.4952 11.1527C20.5254 11.0887 20.5593 10.9811 20.5789 10.7294C20.5993 10.4667 20.6 10.1248 20.6 9.60048C20.6 9.0436 20.5993 8.67904 20.5769 8.39979C20.5553 8.13117 20.518 8.01855 20.4857 7.9534C20.3837 7.74757 20.2199 7.57883 20.0172 7.47083C19.953 7.43664 19.8415 7.39596 19.5737 7.36646C19.2952 7.33579 18.9308 7.32433 18.3742 7.30785L5.68431 6.93221ZM8.49998 17.9C7.89246 17.9 7.39998 18.3925 7.39998 19C7.39998 19.6075 7.89246 20.1 8.49998 20.1C9.10749 20.1 9.59998 19.6075 9.59998 19C9.59998 18.3925 9.10749 17.9 8.49998 17.9ZM5.59998 19C5.59998 17.3984 6.89835 16.1 8.49998 16.1C10.1016 16.1 11.4 17.3984 11.4 19C11.4 20.6016 10.1016 21.9 8.49998 21.9C6.89835 21.9 5.59998 20.6016 5.59998 19ZM16.9 19C16.9 18.3925 17.3925 17.9 18 17.9C18.6075 17.9 19.1 18.3925 19.1 19C19.1 19.6075 18.6075 20.1 18 20.1C17.3925 20.1 16.9 19.6075 16.9 19ZM18 16.1C16.3984 16.1 15.1 17.3984 15.1 19C15.1 20.6016 16.3984 21.9 18 21.9C19.6016 21.9 20.9 20.6016 20.9 19C20.9 17.3984 19.6016 16.1 18 16.1Z"/>
</symbol><symbol viewBox="0 0 24 25" id="close" xmlns="http://www.w3.org/2000/svg">
<path fill-rule="evenodd" clip-rule="evenodd" d="M10.5854 12.724L5 18.3144L6.41 19.7244L11.9996 14.1382L17.59 19.7244L19 18.3144L13.4138 12.724L19 7.13443L17.59 5.72443L11.9996 11.3098L6.41 5.72443L5 7.13443L10.5854 12.724Z"/>
</symbol><symbol viewBox="0 0 24 24" id="favorite" xmlns="http://www.w3.org/2000/svg">
<path fill-rule="evenodd" clip-rule="evenodd" d="M11.9996 20.0225C7.35982 17.3882 4.76416 14.7625 3.50744 12.4738C2.22425 10.1369 2.3302 8.15446 3.05171 6.73895C4.52988 3.83897 8.73571 2.91113 11.2936 6.14622L11.9995 7.03906L12.7055 6.14626C15.2638 2.91106 19.4699 3.83903 20.948 6.73895C21.6695 8.15444 21.7754 10.1369 20.4921 12.4738C19.2353 14.7625 16.6395 17.3882 11.9996 20.0225ZM11.9996 4.24505C8.5199 0.856104 3.33722 2.21518 1.44802 5.92152C0.419533 7.93927 0.400427 10.5552 1.92965 13.3402C3.44655 16.1027 6.47805 19.0306 11.5642 21.8418L11.9996 22.0824L12.4349 21.8418C17.5213 19.0306 20.5529 16.1027 22.0699 13.3402C23.5992 10.5552 23.5802 7.93929 22.5517 5.92152C20.6625 2.21511 15.4796 0.856151 11.9996 4.24505Z"/>
</symbol><symbol viewBox="0 0 20 20" id="location" xmlns="http://www.w3.org/2000/svg">
<path fill-rule="evenodd" clip-rule="evenodd" d="M10.974 18.5413C13.0898 17.0976 17.9167 13.3048 17.9167 8.74992C17.9167 4.37766 14.3723 0.833252 10 0.833252C5.62775 0.833252 2.08333 4.37766 2.08333 8.74992C2.08333 13.3048 6.91025 17.0976 9.02596 18.5413C9.61759 18.945 10.3824 18.945 10.974 18.5413ZM10 11.2499C11.3807 11.2499 12.5 10.1306 12.5 8.74992C12.5 7.36921 11.3807 6.24992 10 6.24992C8.61929 6.24992 7.5 7.36921 7.5 8.74992C7.5 10.1306 8.61929 11.2499 10 11.2499Z"/>
</symbol><symbol viewBox="0 0 20 20" id="phone" xmlns="http://www.w3.org/2000/svg">
<path d="M13.4307 13.0668L12.9152 13.8401C12.8123 13.9944 12.6762 14.1261 12.4969 14.1735C11.9095 14.3287 10.3499 14.3988 7.9755 12.0244C5.60111 9.65004 5.67119 8.09046 5.82641 7.50302C5.8738 7.32368 6.00549 7.1876 6.15983 7.0847L6.93308 6.5692C7.50878 6.1854 7.66435 5.40757 7.28055 4.83187L5.82014 2.64126C5.48514 2.13876 4.83933 1.94678 4.28423 2.18468L3.62544 2.46702C3.12498 2.6815 2.71674 3.06643 2.47324 3.55343C2.2698 3.96031 2.11213 4.38877 2.09076 4.84317C2.02344 6.27515 2.33743 9.80312 6.26713 13.7328C10.1968 17.6625 13.7248 17.9765 15.1568 17.9092C15.6111 17.8878 16.0396 17.7301 16.4465 17.5267C16.9335 17.2832 17.3184 16.8749 17.5329 16.3745L17.8152 15.7157C18.0531 15.1606 17.8612 14.5148 17.3587 14.1798L15.168 12.7194C14.5923 12.3356 13.8145 12.4911 13.4307 13.0668Z"/>
</symbol><symbol viewBox="0 0 20 20" id="search" xmlns="http://www.w3.org/2000/svg">
<path fill-rule="evenodd" clip-rule="evenodd" d="M8.75002 4.23335C6.25553 4.23335 4.23335 6.25553 4.23335 8.75002C4.23335 11.2445 6.25553 13.2667 8.75002 13.2667C9.99751 13.2667 11.1254 12.7621 11.9438 11.9438C12.7621 11.1254 13.2667 9.99751 13.2667 8.75002C13.2667 6.25553 11.2445 4.23335 8.75002 4.23335ZM2.43335 8.75002C2.43335 5.26142 5.26142 2.43335 8.75002 2.43335C12.2386 2.43335 15.0667 5.26142 15.0667 8.75002C15.0667 10.1693 14.5978 11.4803 13.8076 12.5348L17.3031 16.0303C17.6546 16.3818 17.6546 16.9516 17.3031 17.3031C16.9516 17.6546 16.3818 17.6546 16.0303 17.3031L12.5348 13.8076C11.4803 14.5978 10.1693 15.0667 8.75002 15.0667C5.26142 15.0667 2.43335 12.2386 2.43335 8.75002Z"/>
</symbol><symbol viewBox="0 0 24 24" id="send" xmlns="http://www.w3.org/2000/svg">
<path d="M20.7825 3.21745C20.6813 3.1167 20.5534 3.04695 20.4139 3.01639C20.2744 2.98584 20.1291 2.99574 19.995 3.04495L3.495 9.04495C3.3527 9.09892 3.23019 9.19491 3.14374 9.32016C3.05729 9.44542 3.01099 9.59401 3.01099 9.7462C3.01099 9.89839 3.05729 10.047 3.14374 10.1722C3.23019 10.2975 3.3527 10.3935 3.495 10.4474L9.9375 13.0199L14.6925 8.24995L15.75 9.30745L10.9725 14.0849L13.5525 20.5275C13.6081 20.667 13.7043 20.7866 13.8286 20.8709C13.953 20.9551 14.0998 21.0001 14.25 20.9999C14.4016 20.9968 14.5486 20.9479 14.6718 20.8595C14.795 20.7711 14.8885 20.6475 14.94 20.5049L20.94 4.00495C20.9911 3.87226 21.0034 3.72777 20.9755 3.58834C20.9477 3.44891 20.8807 3.32028 20.7825 3.21745Z"/>
</symbol><symbol viewBox="0 0 24 24" id="share" xmlns="http://www.w3.org/2000/svg">
<path d="M18 16C17.212 16 16.5 16.31 15.966 16.807L8.91 12.7C8.96 12.47 9 12.24 9 12C9 11.76 8.96 11.53 8.91 11.3L15.96 7.19C16.5 7.69 17.21 8 18 8C19.66 8 21 6.66 21 5C21 3.34 19.66 2 18 2C16.34 2 15 3.34 15 5C15 5.24 15.04 5.47 15.09 5.7L8.04 9.81C7.5 9.31 6.79 9 6 9C4.34 9 3 10.34 3 12C3 13.66 4.34 15 6 15C6.79 15 7.5 14.69 8.04 14.19L15.088 18.308C15.0317 18.5344 15.0022 18.7667 15 19C15 19.5933 15.1759 20.1734 15.5056 20.6667C15.8352 21.1601 16.3038 21.5446 16.8519 21.7716C17.4001 21.9987 18.0033 22.0581 18.5853 21.9424C19.1672 21.8266 19.7018 21.5409 20.1213 21.1213C20.5409 20.7018 20.8266 20.1672 20.9424 19.5853C21.0581 19.0033 20.9987 18.4001 20.7716 17.8519C20.5446 17.3038 20.1601 16.8352 19.6667 16.5056C19.1734 16.1759 18.5933 16 18 16Z"/>
</symbol></svg>